# xmcd
#
# Track frame offsets:
#	150
#	15425
#	30625
#	49288
#	62123
#	75302
#	92214
#	105132
#	122895
#	143930
#	165822
#	180587
#	198038
#	215057
#
# Disc length: 3101 seconds
#
# Revision: 1
# Processed by: cddbd v1.5.1PL0 Copyright (c) Steve Scherf et al.
# Submitted via: EasyCDDAExtractor 7.1.0.1
#
DISCID=ad0c1b0e
DTITLE=Clifton Chenier - Zydeco Blues
DYEAR=2004
DGENRE=Cajun
TTITLE0=Worried Life Blues
TTITLE1=Gone a la Maison
TTITLE2=Ain't No Need of Cryin'
TTITLE3=Tout Les Jours
TTITLE4=Done Got Over
TTITLE5=The Sweetest Thing I Know
TTITLE6=In the Mood
TTITLE7=Trouble in Mind
TTITLE8=Paper in My Shoe
TTITLE9=Brown Skin Woman
TTITLE10=Be My Chauffeur
TTITLE11=Night Time Is the Right Time (Live)
TTITLE12=I'm Coming Home (Live)
TTITLE13=Travelin' Blues (Live)
EXTD=
EXTT0=
EXTT1=
EXTT2=
EXTT3=
EXTT4=
EXTT5=
EXTT6=
EXTT7=
EXTT8=
EXTT9=
EXTT10=
EXTT11=
EXTT12=
EXTT13=
PLAYORDER=
